<?xml version="1.0" ?><!DOCTYPE svg  PUBLIC '-//W3C//DTD SVG 1.1//EN'  'http://www.w3.org/Graphics/SVG/1.1/DTD/svg11.dtd'><svg height="241.000" viewBox="-30.000 -183.000 241.000 241.000" width="241.000" xmlns="http://www.w3.org/2000/svg"><polyline fill="none" points="0.0,-0.0 180.0,-0.0 118.436374201,-169.144671741 -19.45162556,-53.4429019979 136.432947121,36.5570980021 167.689619101,-140.70829754 -9.57577644099,-109.45162556 80.424223559,46.4329471212 196.125993303,-91.4550526403 26.9813215611,-153.018678439 26.9813215611,26.9813215611 196.125993303,-34.5823042375 80.424223559,-172.470303999 -9.57577644099,-16.5857313177 167.689619101,14.6709406623 136.432947121,-162.59445488 -19.45162556,-72.5944548799 118.436374201,43.1073148637 180.0,-126.037356878 0.0,-126.037356878 61.5636257986,43.1073148637 199.45162556,-72.5944548799 43.5670528788,-162.59445488 12.3103808988,14.6709406623 189.575776441,-16.5857313177 99.575776441,-172.470303999 -16.1259933026,-34.5823042375 153.018678439,26.9813215611 153.018678439,-153.018678439 -16.1259933026,-91.4550526403 99.575776441,46.4329471212 189.575776441,-109.45162556 12.3103808988,-140.70829754 43.5670528788,36.5570980021 199.45162556,-53.4429019979 61.5636257986,-169.144671741 -1.91846538655e-13,-1.13686837722e-13 180.0,1.56097357262e-13 118.436374201,-169.144671741 -19.45162556,-53.4429019979 136.432947121,36.5570980021" stroke="#00f" stroke-linecap="round" stroke-linejoin="round"/><line fill="none" stroke="none" stroke-linecap="round" x1="0.0" x2="0.0" y1="0.0" y2="0.0"/><polygon fill="#00f" fill-rule="evenodd" points="136.432947121,36.5570980021 129.946074757,44.5521268909 135.217409877,43.4507522732 139.794152287,46.2886086676" stroke="#00f" stroke-linejoin="round"/></svg>
