<?xml version="1.0" ?><!DOCTYPE svg  PUBLIC '-//W3C//DTD SVG 1.1//EN'  'http://www.w3.org/Graphics/SVG/1.1/DTD/svg11.dtd'><svg height="385.000" viewBox="-38.000 -174.000 439.000 385.000" width="439.000" xmlns="http://www.w3.org/2000/svg"><polygon fill="none" fill-rule="evenodd" points="0.0,0.0 0.0,0.0 0.0,0.0" stroke-linejoin="round"/><line fill="none" stroke="#ed7fde" stroke-linecap="round" x1="0.0" x2="100.0" y1="-0.0" y2="-0.0"/><line fill="none" stroke="#51db4a" stroke-linecap="round" x1="100.0" x2="110.452846327" y1="-0.0" y2="99.4521895368"/><line fill="none" stroke="#a343bb" stroke-linecap="round" x1="110.452846327" x2="119.168420602" y1="99.4521895368" y2="199.071659346"/><line fill="none" stroke="#0d2a23" stroke-linecap="round" x1="119.168420602" x2="23.0422510077" y1="199.071659346" y2="171.507923764"/><line fill="none" stroke="#cd90da" stroke-linecap="round" x1="23.0422510077" x2="-26.9577489923" y1="171.507923764" y2="84.9053833859"/><line fill="none" stroke="#3b6f2f" stroke-linecap="round" x1="-26.9577489923" x2="72.4944405445" y1="84.9053833859" y2="95.3582297126"/><line fill="none" stroke="#1361ef" stroke-linecap="round" x1="72.4944405445" x2="159.956411258" y1="95.3582297126" y2="143.839191737"/><line fill="none" stroke="#ed8838" stroke-linecap="round" x1="159.956411258" x2="73.35387088" y1="143.839191737" y2="193.839191737"/><line fill="none" stroke="#2c2034" stroke-linecap="round" x1="73.35387088" x2="73.35387088" y1="193.839191737" y2="93.8391917373"/><line fill="none" stroke="#6a095e" stroke-linecap="round" x1="73.35387088" x2="107.555885213" y1="93.8391917373" y2="-0.130070341334"/><line fill="none" stroke="#da8c97" stroke-linecap="round" x1="107.555885213" x2="195.017855927" y1="-0.130070341334" y2="-48.611032366"/><line fill="none" stroke="#aebbf2" stroke-linecap="round" x1="195.017855927" x2="294.880809402" y1="-48.611032366" y2="-53.8446279903"/><line fill="none" stroke="#e6f7ff" stroke-linecap="round" x1="294.880809402" x2="229.274906503" y1="-53.8446279903" y2="21.626330032"/><line fill="none" stroke="#15b0fb" stroke-linecap="round" x1="229.274906503" x2="135.305644424" y1="21.626330032" y2="-12.5756843006"/><line fill="none" stroke="#d980ff" stroke-linecap="round" x1="135.305644424" x2="228.024029881" y1="-12.5756843006" y2="-50.0363436421"/><line fill="none" stroke="#1bc5ea" stroke-linecap="round" x1="228.024029881" x2="285.381673516" y1="-50.0363436421" y2="31.8788607868"/><line fill="none" stroke="#4e19ad" stroke-linecap="round" x1="285.381673516" x2="202.477916261" y1="31.8788607868" y2="-24.0404295603"/><line fill="none" stroke="#50bcb6" stroke-linecap="round" x1="202.477916261" x2="284.39312069" y1="-24.0404295603" y2="-81.3980731954"/><line fill="none" stroke="#675751" stroke-linecap="round" x1="284.39312069" x2="366.308325118" y1="-81.3980731954" y2="-24.0404295603"/><line fill="none" stroke="#fc33ab" stroke-linecap="round" x1="366.308325118" x2="388.803430553" y1="-24.0404295603" y2="73.3965769182"/><line fill="none" stroke="#ca464c" stroke-linecap="round" x1="388.803430553" x2="289.776623679" y1="73.3965769182" y2="59.4792668222"/><line fill="none" stroke="#3ce355" stroke-linecap="round" x1="289.776623679" x2="207.86141925" y1="59.4792668222" y2="2.12162318709"/><line fill="none" stroke="#8e702e" stroke-linecap="round" x1="207.86141925" x2="242.063433582" y1="2.12162318709" y2="-91.8476388915"/><polyline fill="none" points="242.063433582,-91.8476388915 312.774111701,-162.55831701 2.84217094304e-13,5.40012479178e-13" stroke="#387d92" stroke-linecap="round" stroke-linejoin="round"/><line fill="none" stroke="none" stroke-linecap="round" x1="0.0" x2="0.0" y1="0.0" y2="0.0"/></svg>