<?xml version="1.0" ?><!DOCTYPE svg  PUBLIC '-//W3C//DTD SVG 1.1//EN'  'http://www.w3.org/Graphics/SVG/1.1/DTD/svg11.dtd'><svg height="336.000" viewBox="-93.000 -305.000 337.000 336.000" width="337.000" xmlns="http://www.w3.org/2000/svg"><line fill="none" stroke="none" stroke-linecap="round" stroke-width="2.0" x1="0.0" x2="0.0" y1="0.0" y2="0.0"/><polygon fill="none" fill-rule="evenodd" points="0.0,0.0 0.0,0.0 0.0,0.0" stroke-linejoin="round"/><line fill="none" stroke="none" stroke-linecap="round" stroke-width="2.0" x1="0.0" x2="0.0" y1="0.0" y2="0.0"/><polyline fill="none" points="0.0,-0.0 150.0,-0.0 231.38193958,-126.003888473 169.68887411,-262.729766319 21.3642501765,-285.086106246 -77.888625463,-172.618925801 -37.2625552416,-28.2252887581 106.073365626,15.9879874035 220.980032094,-80.4301540495 202.328476397,-229.26603504 67.1831462117,-294.348595907 -60.8104860331,-216.1333154 -64.5500897938,-66.1799381001 59.3857263536,18.3180706095 197.607158134,-39.9471488317 223.654384784,-187.668311784 113.69660401,-289.694222449 -31.6649889247,-252.680612796 -79.4379864624,-110.491510871 14.0854838164,6.7832114996 163.340100121,-8.15196548977 231.771698724,-141.632736811 156.771698724,-271.536547379 6.95816054134,-279.013430228 -80.6033902939,-157.222729371 -25.8022366389,-17.5916670743 121.223636538,12.1302544057 225.959159251,-95.2497729833 192.581019158,-241.488959811 51.6271260399,-292.791981309 -67.9427500435,-202.221319761 -56.7332360055,-52.6407501834 75.0,19.0973466098 206.733236006,-52.6407501834 217.942750043,-202.221319761 98.3728739601,-292.791981309 -42.5810191578,-241.488959811 -75.9591592513,-95.2497729833 28.7763634616,12.1302544057 175.802236639,-17.5916670743 230.603390294,-157.222729371 143.041839459,-279.013430228 -6.77169872418,-271.536547379" stroke="#000" stroke-linecap="round" stroke-linejoin="round"/><polyline fill="none" points="-6.77169872418,-271.536547379 -81.7716987242,-141.632736811 -13.3401001212,-8.15196548977 135.914516184,6.7832114996 229.437986462,-110.491510871 181.664988925,-252.680612796 36.3033959903,-289.694222449 -73.6543847842,-187.668311784 -47.6071581341,-39.9471488317 90.6142736464,18.3180706095 214.550089794,-66.1799381001 210.810486033,-216.1333154 82.8168537883,-294.348595907 -52.3284763971,-229.26603504 -70.9800320942,-80.4301540495 43.9266343737,15.9879874035 187.262555242,-28.2252887581 227.888625463,-172.618925801 128.635749823,-285.086106246 -19.6888741103,-262.729766319 -81.3819395799,-126.003888473 -3.97903932026e-13,-4.68958205602e-13 150.0,-1.93178806285e-14 231.38193958,-126.003888473 169.68887411,-262.729766319 21.3642501765,-285.086106246 -77.888625463,-172.618925801 -37.2625552416,-28.2252887581 106.073365626,15.9879874035 220.980032094,-80.4301540495 202.328476397,-229.26603504" stroke="#000" stroke-linecap="round" stroke-linejoin="round"/><line fill="none" stroke="none" stroke-linecap="round" x1="0.0" x2="0.0" y1="0.0" y2="0.0"/><polygon fill="#000" fill-rule="evenodd" points="202.328476397,-229.26603504 208.267777513,-220.856237048 208.635258472,-226.228848866 212.606614904,-229.865925727" stroke="#000" stroke-linejoin="round"/></svg>