<?xml version="1.0" ?><!DOCTYPE svg  PUBLIC '-//W3C//DTD SVG 1.1//EN'  'http://www.w3.org/Graphics/SVG/1.1/DTD/svg11.dtd'><svg height="148.000" viewBox="-78.000 -74.000 156.000 148.000" width="156.000" xmlns="http://www.w3.org/2000/svg"><line fill="none" stroke="none" stroke-linecap="round" stroke-width="2.0" x1="0.0" x2="0.0" y1="0.0" y2="0.0"/><polygon fill="none" fill-rule="evenodd" points="0.0,0.0 0.0,0.0 0.0,0.0" stroke-linejoin="round"/><line fill="none" stroke="none" stroke-linecap="round" stroke-width="2.0" x1="0.0" x2="0.0" y1="0.0" y2="0.0"/><line fill="none" stroke="none" stroke-linecap="round" stroke-width="2.0" x1="0.0" x2="0.0" y1="0.0" y2="0.0"/><line fill="none" stroke="none" stroke-linecap="round" stroke-width="2.0" x1="0.0" x2="0.0" y1="0.0" y2="0.0"/><polygon fill="#006400" fill-rule="evenodd" points="66.0,-0.0 64.0,-2.0 60.0,-1.0 57.0,-4.0 59.0,-7.0 58.0,-9.0 55.0,-6.0 51.0,-7.0 47.0,-5.0 44.0,-8.0 42.0,-6.0 45.0,-4.0 43.0,-0.0 45.0,4.0 42.0,6.0 44.0,8.0 47.0,5.0 51.0,7.0 55.0,6.0 58.0,9.0 59.0,7.0 57.0,4.0 60.0,1.0 64.0,2.0" stroke="#006400" stroke-linejoin="round"/><polygon fill="#006400" fill-rule="evenodd" points="53.3951216287,38.7938266513 52.9526581446,36.000222158 49.1288049148,34.4580981432 48.4651096885,30.2676914032 51.8464994342,29.0162109246 52.2130529444,26.8103916836 48.0226462044,27.4740869098 45.3743634792,24.3139289063 40.9627249971,23.5808218859 40.2990297708,19.3904151459 37.5054252775,19.83287863 38.756905756,23.2142683757 34.7877307581,25.2747658486 34.0546237377,29.6864043307 30.45200225,29.5410825625 30.8944657342,32.3346870559 35.0848724742,31.6709918296 37.1453699471,35.6401668275 40.9692231769,37.1822908423 41.6329184031,41.3726975823 43.6175059021,40.3424488459 43.7628276702,36.7398273582 47.9532344102,36.0761321319 50.6015171354,39.2362901355" stroke="#006400" stroke-linejoin="round"/><polygon fill="#006400" fill-rule="evenodd" points="20.3951216287,62.7697300755 21.6792006726,60.2495830541 19.4920761788,56.7543739833 21.4181947446,52.9741534513 24.8893982822,53.9492155008 26.4824943204,52.3801249957 22.7022737884,50.45400643 22.4172623272,46.3407633704 19.2790813171,43.154571294 21.2051998829,39.374350762 18.6850528615,38.0902717181 17.7099908121,41.5614752558 13.2877307581,40.8954302007 10.1015386817,44.0336112108 7.27237466598,41.7984756506 5.98829562214,44.318622672 9.76851615415,46.2447412377 9.10247109906,50.6670012917 11.2895955929,54.1622103625 9.36347702709,57.9424308945 11.5746070541,58.275453422 13.8097426142,55.4462894063 17.5899631462,57.3724079721 17.8749746074,61.4856510316" stroke="#006400" stroke-linejoin="round"/><polygon fill="#006400" fill-rule="evenodd" points="-20.3951216287,62.7697300755 -17.8749746074,61.4856510316 -17.5899631462,57.3724079721 -13.8097426142,55.4462894063 -11.5746070541,58.275453422 -9.36347702709,57.9424308945 -11.2895955929,54.1622103625 -9.10247109906,50.6670012917 -9.76851615415,46.2447412377 -5.98829562214,44.318622672 -7.27237466598,41.7984756506 -10.1015386817,44.0336112108 -13.2877307581,40.8954302007 -17.7099908121,41.5614752558 -18.6850528615,38.0902717181 -21.2051998829,39.374350762 -19.2790813171,43.154571294 -22.4172623272,46.3407633704 -22.7022737884,50.45400643 -26.4824943204,52.3801249957 -24.8893982822,53.9492155008 -21.4181947446,52.9741534513 -19.4920761788,56.7543739833 -21.6792006726,60.2495830541" stroke="#006400" stroke-linejoin="round"/><polygon fill="#006400" fill-rule="evenodd" points="-53.3951216287,38.7938266513 -50.6015171354,39.2362901355 -47.9532344102,36.0761321319 -43.7628276702,36.7398273582 -43.6175059021,40.3424488459 -41.6329184031,41.3726975823 -40.9692231769,37.1822908423 -37.1453699471,35.6401668275 -35.0848724742,31.6709918296 -30.8944657342,32.3346870559 -30.45200225,29.5410825625 -34.0546237377,29.6864043307 -34.7877307581,25.2747658486 -38.756905756,23.2142683757 -37.5054252775,19.83287863 -40.2990297708,19.3904151459 -40.9627249971,23.5808218859 -45.3743634792,24.3139289063 -48.0226462044,27.4740869098 -52.2130529444,26.8103916836 -51.8464994342,29.0162109246 -48.4651096885,30.2676914032 -49.1288049148,34.4580981432 -52.9526581446,36.000222158" stroke="#006400" stroke-linejoin="round"/><polygon fill="#006400" fill-rule="evenodd" points="-66.0,-0.0 -64.0,2.0 -60.0,1.0 -57.0,4.0 -59.0,7.0 -58.0,9.0 -55.0,6.0 -51.0,7.0 -47.0,5.0 -44.0,8.0 -42.0,6.0 -45.0,4.0 -43.0,-0.0 -45.0,-4.0 -42.0,-6.0 -44.0,-8.0 -47.0,-5.0 -51.0,-7.0 -55.0,-6.0 -58.0,-9.0 -59.0,-7.0 -57.0,-4.0 -60.0,-1.0 -64.0,-2.0" stroke="#006400" stroke-linejoin="round"/><polygon fill="#006400" fill-rule="evenodd" points="-53.3951216287,-38.7938266513 -52.9526581446,-36.000222158 -49.1288049148,-34.4580981432 -48.4651096885,-30.2676914032 -51.8464994342,-29.0162109246 -52.2130529444,-26.8103916836 -48.0226462044,-27.4740869098 -45.3743634792,-24.3139289063 -40.9627249971,-23.5808218859 -40.2990297708,-19.3904151459 -37.5054252775,-19.83287863 -38.756905756,-23.2142683757 -34.7877307581,-25.2747658486 -34.0546237377,-29.6864043307 -30.45200225,-29.5410825625 -30.8944657342,-32.3346870559 -35.0848724742,-31.6709918296 -37.1453699471,-35.6401668275 -40.9692231769,-37.1822908423 -41.6329184031,-41.3726975823 -43.6175059021,-40.3424488459 -43.7628276702,-36.7398273582 -47.9532344102,-36.0761321319 -50.6015171354,-39.2362901355" stroke="#006400" stroke-linejoin="round"/><polygon fill="#006400" fill-rule="evenodd" points="-20.3951216287,-62.7697300755 -21.6792006726,-60.2495830541 -19.4920761788,-56.7543739833 -21.4181947446,-52.9741534513 -24.8893982822,-53.9492155008 -26.4824943204,-52.3801249957 -22.7022737884,-50.45400643 -22.4172623272,-46.3407633704 -19.2790813171,-43.154571294 -21.2051998829,-39.374350762 -18.6850528615,-38.0902717181 -17.7099908121,-41.5614752558 -13.2877307581,-40.8954302007 -10.1015386817,-44.0336112108 -7.27237466598,-41.7984756506 -5.98829562214,-44.318622672 -9.76851615415,-46.2447412377 -9.10247109906,-50.6670012917 -11.2895955929,-54.1622103625 -9.36347702709,-57.9424308945 -11.5746070541,-58.275453422 -13.8097426142,-55.4462894063 -17.5899631462,-57.3724079721 -17.8749746074,-61.4856510316" stroke="#006400" stroke-linejoin="round"/><polygon fill="#006400" fill-rule="evenodd" points="20.3951216287,-62.7697300755 17.8749746074,-61.4856510316 17.5899631462,-57.3724079721 13.8097426142,-55.4462894063 11.5746070541,-58.275453422 9.36347702709,-57.9424308945 11.2895955929,-54.1622103625 9.10247109906,-50.6670012917 9.76851615415,-46.2447412377 5.98829562214,-44.318622672 7.27237466598,-41.7984756506 10.1015386817,-44.0336112108 13.2877307581,-40.8954302007 17.7099908121,-41.5614752558 18.6850528615,-38.0902717181 21.2051998829,-39.374350762 19.2790813171,-43.154571294 22.4172623272,-46.3407633704 22.7022737884,-50.45400643 26.4824943204,-52.3801249957 24.8893982822,-53.9492155008 21.4181947446,-52.9741534513 19.4920761788,-56.7543739833 21.6792006726,-60.2495830541" stroke="#006400" stroke-linejoin="round"/><polygon fill="#006400" fill-rule="evenodd" points="53.3951216287,-38.7938266513 50.6015171354,-39.2362901355 47.9532344102,-36.0761321319 43.7628276702,-36.7398273582 43.6175059021,-40.3424488459 41.6329184031,-41.3726975823 40.9692231769,-37.1822908423 37.1453699471,-35.6401668275 35.0848724742,-31.6709918296 30.8944657342,-32.3346870559 30.45200225,-29.5410825625 34.0546237377,-29.6864043307 34.7877307581,-25.2747658486 38.756905756,-23.2142683757 37.5054252775,-19.83287863 40.2990297708,-19.3904151459 40.9627249971,-23.5808218859 45.3743634792,-24.3139289063 48.0226462044,-27.4740869098 52.2130529444,-26.8103916836 51.8464994342,-29.0162109246 48.4651096885,-30.2676914032 49.1288049148,-34.4580981432 52.9526581446,-36.000222158" stroke="#006400" stroke-linejoin="round"/><polygon fill="#006400" fill-rule="evenodd" points="16.0,-0.0 14.0,-2.0 10.0,-1.0 7.0,-4.0 9.0,-7.0 8.0,-9.0 5.0,-6.0 1.0,-7.0 -3.0,-5.0 -6.0,-8.0 -8.0,-6.0 -5.0,-4.0 -7.0,-0.0 -5.0,4.0 -8.0,6.0 -6.0,8.0 -3.0,5.0 1.0,7.0 5.0,6.0 8.0,9.0 9.0,7.0 7.0,4.0 10.0,1.0 14.0,2.0" stroke="#006400" stroke-linejoin="round"/></svg>
