<?xml version="1.0" ?><!DOCTYPE svg  PUBLIC '-//W3C//DTD SVG 1.1//EN'  'http://www.w3.org/Graphics/SVG/1.1/DTD/svg11.dtd'><svg height="288.000" viewBox="-44.000 -57.000 288.000 288.000" width="288.000" xmlns="http://www.w3.org/2000/svg"><line fill="none" stroke="none" stroke-linecap="round" stroke-width="2.0" x1="0.0" x2="0.0" y1="0.0" y2="0.0"/><polygon fill="none" fill-rule="evenodd" points="0.0,0.0 0.0,0.0 0.0,0.0" stroke-linejoin="round"/><line fill="none" stroke="none" stroke-linecap="round" stroke-width="2.0" x1="0.0" x2="0.0" y1="0.0" y2="0.0"/><line fill="none" stroke="#191970" stroke-linecap="round" x1="0.0" x2="200.0" y1="-0.0" y2="-0.0"/><line fill="none" stroke="#0000cd" stroke-linecap="round" x1="200.0" x2="172.165379808" y1="-0.0" y2="198.053613748"/><line fill="none" stroke="#4169e1" stroke-linecap="round" x1="172.165379808" x2="-20.0869593797" y1="198.053613748" y2="142.926142585"/><line fill="none" stroke="#00bfff" stroke-linecap="round" x1="-20.0869593797" x2="61.2603692355" y1="142.926142585" y2="-39.7829489436"/><line fill="none" stroke="#87cefa" stroke-linecap="round" x1="61.2603692355" x2="230.869988467" y1="-39.7829489436" y2="66.200903903"/><line fill="none" stroke="#00bfff" stroke-linecap="round" x1="230.869988467" x2="102.312466529" y1="66.200903903" y2="219.409792527"/><line fill="none" stroke="#4169e1" stroke-linecap="round" x1="102.312466529" x2="-31.5136547423" y1="219.409792527" y2="70.7808274314"/><line fill="none" stroke="#0000cd" stroke-linecap="round" x1="-31.5136547423" x2="134.293859769" y1="70.7808274314" y2="-41.0577532628"/><polyline fill="none" points="134.293859769,-41.0577532628 221.968089127,138.701055997 31.7567858675,200.504454872" stroke="#191970" stroke-linecap="round" stroke-linejoin="round"/><line fill="none" stroke="#0000cd" stroke-linecap="round" x1="31.7567858675" x2="-2.9728496659" y1="200.504454872" y2="3.54290426958"/><line fill="none" stroke="#4169e1" stroke-linecap="round" x1="-2.9728496659" x2="196.905315738" y1="3.54290426958" y2="-3.43699507092"/><line fill="none" stroke="#00bfff" stroke-linecap="round" x1="196.905315738" x2="175.999623084" y1="-3.43699507092" y2="195.467384003"/><line fill="none" stroke="#87cefa" stroke-linecap="round" x1="175.999623084" x2="-18.0595221708" y1="195.467384003" y2="147.083004883"/><line fill="none" stroke="#00bfff" stroke-linecap="round" x1="-18.0595221708" x2="56.8617965124" y1="147.083004883" y2="-38.3537660306"/><line fill="none" stroke="#4169e1" stroke-linecap="round" x1="56.8617965124" x2="230.066877269" y1="-38.3537660306" y2="61.6462339694"/><line fill="none" stroke="#0000cd" stroke-linecap="round" x1="230.066877269" x2="106.934582204" y1="61.6462339694" y2="219.248384691"/><polyline fill="none" points="106.934582204,219.248384691 -31.9970918877,75.3804246231 129.806306987,-42.1766258354" stroke="#191970" stroke-linecap="round" stroke-linejoin="round"/><line fill="none" stroke="#0000cd" stroke-linecap="round" x1="129.806306987" x2="223.700619544" y1="-42.1766258354" y2="134.412892736"/><line fill="none" stroke="#4169e1" stroke-linecap="round" x1="223.700619544" x2="35.7620953873" y1="134.412892736" y2="202.816921401"/><line fill="none" stroke="#00bfff" stroke-linecap="round" x1="35.7620953873" x2="-5.82024277624" y1="202.816921401" y2="7.18740125472"/><line fill="none" stroke="#87cefa" stroke-linecap="round" x1="-5.82024277624" x2="193.692567276" y1="7.18740125472" y2="-6.7638934941"/><line fill="none" stroke="#00bfff" stroke-linecap="round" x1="193.692567276" x2="179.741272527" y1="-6.7638934941" y2="192.748916558"/><line fill="none" stroke="#4169e1" stroke-linecap="round" x1="179.741272527" x2="-15.8882476199" y1="192.748916558" y2="151.166578394"/><line fill="none" stroke="#0000cd" stroke-linecap="round" x1="-15.8882476199" x2="52.5157810453" y1="151.166578394" y2="-36.7719457629"/><polyline fill="none" points="52.5157810453,-36.7719457629 229.105299617,57.1223667943 111.548249159,218.925765669" stroke="#191970" stroke-linecap="round" stroke-linejoin="round"/><line fill="none" stroke="#0000cd" stroke-linecap="round" x1="111.548249159" x2="-32.3197109092" y1="218.925765669" y2="79.9940915775"/><line fill="none" stroke="#4169e1" stroke-linecap="round" x1="-32.3197109092" x2="125.282439812" y1="79.9940915775" y2="-43.1382034876"/><line fill="none" stroke="#00bfff" stroke-linecap="round" x1="125.282439812" x2="225.282439812" y1="-43.1382034876" y2="130.066877269"/><line fill="none" stroke="#87cefa" stroke-linecap="round" x1="225.282439812" x2="39.8456688988" y1="130.066877269" y2="204.988195952"/><line fill="none" stroke="#00bfff" stroke-linecap="round" x1="39.8456688988" x2="-8.53871022112" y1="204.988195952" y2="10.9290506972"/><line fill="none" stroke="#4169e1" stroke-linecap="round" x1="-8.53871022112" x2="190.365668853" y1="10.9290506972" y2="-9.97664195629"/><line fill="none" stroke="#0000cd" stroke-linecap="round" x1="190.365668853" x2="183.385769512" y1="-9.97664195629" y2="189.901523448"/><polyline fill="none" points="183.385769512,189.901523448 -13.5757810904,155.171887914 48.2276177846,-35.0394153449" stroke="#191970" stroke-linecap="round" stroke-linejoin="round"/><line fill="none" stroke="#0000cd" stroke-linecap="round" x1="48.2276177846" x2="227.986427044" y1="-35.0394153449" y2="52.6348140129"/><line fill="none" stroke="#4169e1" stroke-linecap="round" x1="227.986427044" x2="116.14784635" y1="52.6348140129" y2="218.442328524"/><line fill="none" stroke="#00bfff" stroke-linecap="round" x1="116.14784635" x2="-32.4811187452" y1="218.442328524" y2="84.6162072522"/><line fill="none" stroke="#87cefa" stroke-linecap="round" x1="-32.4811187452" x2="120.727769879" y1="84.6162072522" y2="-43.9413146851"/><line fill="none" stroke="#00bfff" stroke-linecap="round" x1="120.727769879" x2="226.711622725" y1="-43.9413146851" y2="125.668304546"/><line fill="none" stroke="#4169e1" stroke-linecap="round" x1="226.711622725" x2="44.0025311967" y1="125.668304546" y2="207.015633161"/><line fill="none" stroke="#0000cd" stroke-linecap="round" x1="44.0025311967" x2="-11.1249399667" y1="207.015633161" y2="14.7632939736"/><polyline fill="none" points="-11.1249399667,14.7632939736 186.928673782,-13.0713262184 186.928673782,186.928673782" stroke="#191970" stroke-linecap="round" stroke-linejoin="round"/><line fill="none" stroke="#0000cd" stroke-linecap="round" x1="186.928673782" x2="-11.1249399667" y1="186.928673782" y2="159.09405359"/><line fill="none" stroke="#4169e1" stroke-linecap="round" x1="-11.1249399667" x2="44.0025311967" y1="159.09405359" y2="-33.1582855981"/><line fill="none" stroke="#00bfff" stroke-linecap="round" x1="44.0025311967" x2="226.711622725" y1="-33.1582855981" y2="48.1890430171"/><line fill="none" stroke="#87cefa" stroke-linecap="round" x1="226.711622725" x2="120.727769879" y1="48.1890430171" y2="217.798662248"/><line fill="none" stroke="#00bfff" stroke-linecap="round" x1="120.727769879" x2="-32.4811187452" y1="217.798662248" y2="89.2411403111"/><line fill="none" stroke="#4169e1" stroke-linecap="round" x1="-32.4811187452" x2="116.14784635" y1="89.2411403111" y2="-44.5849809607"/><line fill="none" stroke="#0000cd" stroke-linecap="round" x1="116.14784635" x2="227.986427044" y1="-44.5849809607" y2="121.22253355"/><polyline fill="none" points="227.986427044,121.22253355 48.2276177846,208.896762908 -13.5757810904,18.6854596491" stroke="#191970" stroke-linecap="round" stroke-linejoin="round"/><line fill="none" stroke="#0000cd" stroke-linecap="round" x1="-13.5757810904" x2="183.385769512" y1="18.6854596491" y2="-16.0441758843"/><line fill="none" stroke="#4169e1" stroke-linecap="round" x1="183.385769512" x2="190.365668853" y1="-16.0441758843" y2="183.83398952"/><line fill="none" stroke="#00bfff" stroke-linecap="round" x1="190.365668853" x2="-8.53871022112" y1="183.83398952" y2="162.928296866"/><line fill="none" stroke="#87cefa" stroke-linecap="round" x1="-8.53871022112" x2="39.8456688988" y1="162.928296866" y2="-31.1308483892"/><line fill="none" stroke="#00bfff" stroke-linecap="round" x1="39.8456688988" x2="225.282439812" y1="-31.1308483892" y2="43.790470294"/><line fill="none" stroke="#4169e1" stroke-linecap="round" x1="225.282439812" x2="125.282439812" y1="43.790470294" y2="216.995551051"/><line fill="none" stroke="#0000cd" stroke-linecap="round" x1="125.282439812" x2="-32.3197109092" y1="216.995551051" y2="93.8632559857"/><polyline fill="none" points="-32.3197109092,93.8632559857 111.548249159,-45.0684181061 229.105299617,116.734980769" stroke="#191970" stroke-linecap="round" stroke-linejoin="round"/><line fill="none" stroke="#0000cd" stroke-linecap="round" x1="229.105299617" x2="52.5157810453" y1="116.734980769" y2="210.629293326"/><line fill="none" stroke="#4169e1" stroke-linecap="round" x1="52.5157810453" x2="-15.8882476199" y1="210.629293326" y2="22.6907691689"/><line fill="none" stroke="#00bfff" stroke-linecap="round" x1="-15.8882476199" x2="179.741272527" y1="22.6907691689" y2="-18.8915689946"/><line fill="none" stroke="#87cefa" stroke-linecap="round" x1="179.741272527" x2="193.692567276" y1="-18.8915689946" y2="180.621241057"/><line fill="none" stroke="#00bfff" stroke-linecap="round" x1="193.692567276" x2="-5.82024277624" y1="180.621241057" y2="166.669946309"/><line fill="none" stroke="#4169e1" stroke-linecap="round" x1="-5.82024277624" x2="35.7620953873" y1="166.669946309" y2="-28.9595738382"/><line fill="none" stroke="#0000cd" stroke-linecap="round" x1="35.7620953873" x2="223.700619544" y1="-28.9595738382" y2="39.4444548269"/><polyline fill="none" points="223.700619544,39.4444548269 129.806306987,216.033973399 -31.9970918877,98.4769229402" stroke="#191970" stroke-linecap="round" stroke-linejoin="round"/><line fill="none" stroke="#0000cd" stroke-linecap="round" x1="-31.9970918877" x2="106.934582204" y1="98.4769229402" y2="-45.3910371275"/><line fill="none" stroke="#4169e1" stroke-linecap="round" x1="106.934582204" x2="230.066877269" y1="-45.3910371275" y2="112.211113594"/><line fill="none" stroke="#00bfff" stroke-linecap="round" x1="230.066877269" x2="56.8617965124" y1="112.211113594" y2="212.211113594"/><line fill="none" stroke="#87cefa" stroke-linecap="round" x1="56.8617965124" x2="-18.0595221708" y1="212.211113594" y2="26.7743426804"/><line fill="none" stroke="#00bfff" stroke-linecap="round" x1="-18.0595221708" x2="175.999623084" y1="26.7743426804" y2="-21.6100364395"/><line fill="none" stroke="#4169e1" stroke-linecap="round" x1="175.999623084" x2="196.905315738" y1="-21.6100364395" y2="177.294342634"/><line fill="none" stroke="#0000cd" stroke-linecap="round" x1="196.905315738" x2="-2.9728496659" y1="177.294342634" y2="170.314443294"/><polyline fill="none" points="-2.9728496659,170.314443294 31.7567858675,-26.6471073088 221.968089127,35.1562915662" stroke="#191970" stroke-linecap="round" stroke-linejoin="round"/><line fill="none" stroke="#0000cd" stroke-linecap="round" x1="221.968089127" x2="134.293859769" y1="35.1562915662" y2="214.915100826"/><line fill="none" stroke="#4169e1" stroke-linecap="round" x1="134.293859769" x2="-31.5136547423" y1="214.915100826" y2="103.076520132"/><line fill="none" stroke="#00bfff" stroke-linecap="round" x1="-31.5136547423" x2="102.312466529" y1="103.076520132" y2="-45.5524449636"/><line fill="none" stroke="#87cefa" stroke-linecap="round" x1="102.312466529" x2="230.869988467" y1="-45.5524449636" y2="107.65644366"/><line fill="none" stroke="#00bfff" stroke-linecap="round" x1="230.869988467" x2="61.2603692355" y1="107.65644366" y2="213.640296507"/><line fill="none" stroke="#4169e1" stroke-linecap="round" x1="61.2603692355" x2="-20.0869593797" y1="213.640296507" y2="30.9312049783"/><line fill="none" stroke="#0000cd" stroke-linecap="round" x1="-20.0869593797" x2="172.165379808" y1="30.9312049783" y2="-24.1962661851"/><polyline fill="none" points="172.165379808,-24.1962661851 200.0,173.857347563 2.55795384874e-13,173.857347563" stroke="#191970" stroke-linecap="round" stroke-linejoin="round"/><line fill="none" stroke="#0000cd" stroke-linecap="round" x1="2.55795384874e-13" x2="27.834620192" y1="173.857347563" y2="-24.1962661851"/><line fill="none" stroke="#4169e1" stroke-linecap="round" x1="27.834620192" x2="220.08695938" y1="-24.1962661851" y2="30.9312049783"/><line fill="none" stroke="#00bfff" stroke-linecap="round" x1="220.08695938" x2="138.739630765" y1="30.9312049783" y2="213.640296507"/><line fill="none" stroke="#87cefa" stroke-linecap="round" x1="138.739630765" x2="-30.8699884668" y1="213.640296507" y2="107.65644366"/><line fill="none" stroke="#00bfff" stroke-linecap="round" x1="-30.8699884668" x2="97.6875334705" y1="107.65644366" y2="-45.5524449636"/><line fill="none" stroke="#4169e1" stroke-linecap="round" x1="97.6875334705" x2="231.513654742" y1="-45.5524449636" y2="103.076520132"/><line fill="none" stroke="#0000cd" stroke-linecap="round" x1="231.513654742" x2="65.7061402313" y1="103.076520132" y2="214.915100826"/><polyline fill="none" points="65.7061402313,214.915100826 -21.9680891265,35.1562915662 168.243214133,-26.6471073088" stroke="#191970" stroke-linecap="round" stroke-linejoin="round"/><line fill="none" stroke="#0000cd" stroke-linecap="round" x1="168.243214133" x2="202.972849666" y1="-26.6471073088" y2="170.314443294"/><line fill="none" stroke="#4169e1" stroke-linecap="round" x1="202.972849666" x2="3.09468426209" y1="170.314443294" y2="177.294342634"/><line fill="none" stroke="#00bfff" stroke-linecap="round" x1="3.09468426209" x2="24.0003769156" y1="177.294342634" y2="-21.6100364395"/><line fill="none" stroke="#87cefa" stroke-linecap="round" x1="24.0003769156" x2="218.059522171" y1="-21.6100364395" y2="26.7743426804"/><line fill="none" stroke="#00bfff" stroke-linecap="round" x1="218.059522171" x2="143.138203488" y1="26.7743426804" y2="212.211113594"/><line fill="none" stroke="#4169e1" stroke-linecap="round" x1="143.138203488" x2="-30.0668772693" y1="212.211113594" y2="112.211113594"/><line fill="none" stroke="#0000cd" stroke-linecap="round" x1="-30.0668772693" x2="93.0654177959" y1="112.211113594" y2="-45.3910371275"/><polyline fill="none" points="93.0654177959,-45.3910371275 231.997091888,98.4769229402 70.1936930127,216.033973399" stroke="#191970" stroke-linecap="round" stroke-linejoin="round"/><line fill="none" stroke="#0000cd" stroke-linecap="round" x1="70.1936930127" x2="-23.7006195445" y1="216.033973399" y2="39.4444548269"/><line fill="none" stroke="#4169e1" stroke-linecap="round" x1="-23.7006195445" x2="164.237904613" y1="39.4444548269" y2="-28.9595738382"/><line fill="none" stroke="#00bfff" stroke-linecap="round" x1="164.237904613" x2="205.820242776" y1="-28.9595738382" y2="166.669946309"/><line fill="none" stroke="#87cefa" stroke-linecap="round" x1="205.820242776" x2="6.30743272428" y1="166.669946309" y2="180.621241057"/><line fill="none" stroke="#00bfff" stroke-linecap="round" x1="6.30743272428" x2="20.2587274731" y1="180.621241057" y2="-18.8915689946"/><line fill="none" stroke="#4169e1" stroke-linecap="round" x1="20.2587274731" x2="215.88824762" y1="-18.8915689946" y2="22.6907691689"/><line fill="none" stroke="#0000cd" stroke-linecap="round" x1="215.88824762" x2="147.484218955" y1="22.6907691689" y2="210.629293326"/><polyline fill="none" points="147.484218955,210.629293326 -29.1052996171,116.734980769 88.4517508414,-45.0684181061" stroke="#191970" stroke-linecap="round" stroke-linejoin="round"/><line fill="none" stroke="#0000cd" stroke-linecap="round" x1="88.4517508414" x2="232.319710909" y1="-45.0684181061" y2="93.8632559857"/><line fill="none" stroke="#4169e1" stroke-linecap="round" x1="232.319710909" x2="74.7175601878" y1="93.8632559857" y2="216.995551051"/><line fill="none" stroke="#00bfff" stroke-linecap="round" x1="74.7175601878" x2="-25.2824398122" y1="216.995551051" y2="43.790470294"/><line fill="none" stroke="#87cefa" stroke-linecap="round" x1="-25.2824398122" x2="160.154331101" y1="43.790470294" y2="-31.1308483892"/><line fill="none" stroke="#00bfff" stroke-linecap="round" x1="160.154331101" x2="208.538710221" y1="-31.1308483892" y2="162.928296866"/><line fill="none" stroke="#4169e1" stroke-linecap="round" x1="208.538710221" x2="9.63433114746" y1="162.928296866" y2="183.83398952"/><line fill="none" stroke="#0000cd" stroke-linecap="round" x1="9.63433114746" x2="16.614230488" y1="183.83398952" y2="-16.0441758843"/><polyline fill="none" points="16.614230488,-16.0441758843 213.57578109,18.6854596491 151.772382215,208.896762908" stroke="#191970" stroke-linecap="round" stroke-linejoin="round"/><line fill="none" stroke="#0000cd" stroke-linecap="round" x1="151.772382215" x2="-27.9864270444" y1="208.896762908" y2="121.22253355"/><line fill="none" stroke="#4169e1" stroke-linecap="round" x1="-27.9864270444" x2="83.8521536497" y1="121.22253355" y2="-44.5849809607"/><line fill="none" stroke="#00bfff" stroke-linecap="round" x1="83.8521536497" x2="232.481118745" y1="-44.5849809607" y2="89.2411403111"/><line fill="none" stroke="#87cefa" stroke-linecap="round" x1="232.481118745" x2="79.2722301214" y1="89.2411403111" y2="217.798662248"/><line fill="none" stroke="#00bfff" stroke-linecap="round" x1="79.2722301214" x2="-26.7116227252" y1="217.798662248" y2="48.1890430171"/><line fill="none" stroke="#4169e1" stroke-linecap="round" x1="-26.7116227252" x2="155.997468803" y1="48.1890430171" y2="-33.1582855981"/><line fill="none" stroke="#0000cd" stroke-linecap="round" x1="155.997468803" x2="211.124939967" y1="-33.1582855981" y2="159.09405359"/><polyline fill="none" points="211.124939967,159.09405359 13.0713262184,186.928673782 13.0713262184,-13.0713262184" stroke="#191970" stroke-linecap="round" stroke-linejoin="round"/><line fill="none" stroke="#0000cd" stroke-linecap="round" x1="13.0713262184" x2="211.124939967" y1="-13.0713262184" y2="14.7632939736"/><line fill="none" stroke="#4169e1" stroke-linecap="round" x1="211.124939967" x2="155.997468803" y1="14.7632939736" y2="207.015633161"/><line fill="none" stroke="#00bfff" stroke-linecap="round" x1="155.997468803" x2="-26.7116227252" y1="207.015633161" y2="125.668304546"/><line fill="none" stroke="#87cefa" stroke-linecap="round" x1="-26.7116227252" x2="79.2722301214" y1="125.668304546" y2="-43.9413146851"/><line fill="none" stroke="#00bfff" stroke-linecap="round" x1="79.2722301214" x2="232.481118745" y1="-43.9413146851" y2="84.6162072522"/><line fill="none" stroke="#4169e1" stroke-linecap="round" x1="232.481118745" x2="83.8521536497" y1="84.6162072522" y2="218.442328524"/><line fill="none" stroke="#0000cd" stroke-linecap="round" x1="83.8521536497" x2="-27.9864270444" y1="218.442328524" y2="52.6348140129"/><polyline fill="none" points="-27.9864270444,52.6348140129 151.772382215,-35.0394153449 213.57578109,155.171887914" stroke="#191970" stroke-linecap="round" stroke-linejoin="round"/><line fill="none" stroke="#0000cd" stroke-linecap="round" x1="213.57578109" x2="16.614230488" y1="155.171887914" y2="189.901523448"/><line fill="none" stroke="#4169e1" stroke-linecap="round" x1="16.614230488" x2="9.63433114746" y1="189.901523448" y2="-9.97664195629"/><line fill="none" stroke="#00bfff" stroke-linecap="round" x1="9.63433114746" x2="208.538710221" y1="-9.97664195629" y2="10.9290506972"/><line fill="none" stroke="#87cefa" stroke-linecap="round" x1="208.538710221" x2="160.154331101" y1="10.9290506972" y2="204.988195952"/><line fill="none" stroke="#00bfff" stroke-linecap="round" x1="160.154331101" x2="-25.2824398122" y1="204.988195952" y2="130.066877269"/><line fill="none" stroke="#4169e1" stroke-linecap="round" x1="-25.2824398122" x2="74.7175601878" y1="130.066877269" y2="-43.1382034876"/><line fill="none" stroke="#0000cd" stroke-linecap="round" x1="74.7175601878" x2="232.319710909" y1="-43.1382034876" y2="79.9940915775"/><polyline fill="none" points="232.319710909,79.9940915775 88.4517508414,218.925765669 -29.1052996171,57.1223667943" stroke="#191970" stroke-linecap="round" stroke-linejoin="round"/><line fill="none" stroke="#0000cd" stroke-linecap="round" x1="-29.1052996171" x2="147.484218955" y1="57.1223667943" y2="-36.7719457629"/><line fill="none" stroke="#4169e1" stroke-linecap="round" x1="147.484218955" x2="215.88824762" y1="-36.7719457629" y2="151.166578394"/><line fill="none" stroke="#00bfff" stroke-linecap="round" x1="215.88824762" x2="20.2587274731" y1="151.166578394" y2="192.748916558"/><line fill="none" stroke="#87cefa" stroke-linecap="round" x1="20.2587274731" x2="6.30743272428" y1="192.748916558" y2="-6.7638934941"/><line fill="none" stroke="#00bfff" stroke-linecap="round" x1="6.30743272428" x2="205.820242776" y1="-6.7638934941" y2="7.18740125472"/><line fill="none" stroke="#4169e1" stroke-linecap="round" x1="205.820242776" x2="164.237904613" y1="7.18740125472" y2="202.816921401"/><line fill="none" stroke="#0000cd" stroke-linecap="round" x1="164.237904613" x2="-23.7006195445" y1="202.816921401" y2="134.412892736"/><polyline fill="none" points="-23.7006195445,134.412892736 70.1936930127,-42.1766258354 231.997091888,75.3804246231" stroke="#191970" stroke-linecap="round" stroke-linejoin="round"/><line fill="none" stroke="#0000cd" stroke-linecap="round" x1="231.997091888" x2="93.0654177959" y1="75.3804246231" y2="219.248384691"/><line fill="none" stroke="#4169e1" stroke-linecap="round" x1="93.0654177959" x2="-30.0668772693" y1="219.248384691" y2="61.6462339694"/><line fill="none" stroke="#00bfff" stroke-linecap="round" x1="-30.0668772693" x2="143.138203488" y1="61.6462339694" y2="-38.3537660306"/><line fill="none" stroke="#87cefa" stroke-linecap="round" x1="143.138203488" x2="218.059522171" y1="-38.3537660306" y2="147.083004883"/><line fill="none" stroke="#00bfff" stroke-linecap="round" x1="218.059522171" x2="24.0003769156" y1="147.083004883" y2="195.467384003"/><line fill="none" stroke="#4169e1" stroke-linecap="round" x1="24.0003769156" x2="3.09468426208" y1="195.467384003" y2="-3.43699507092"/><line fill="none" stroke="#0000cd" stroke-linecap="round" x1="3.09468426208" x2="202.972849666" y1="-3.43699507092" y2="3.54290426958"/><polyline fill="none" points="202.972849666,3.54290426958 168.243214133,200.504454872 -21.9680891265,138.701055997" stroke="#191970" stroke-linecap="round" stroke-linejoin="round"/><line fill="none" stroke="#0000cd" stroke-linecap="round" x1="-21.9680891265" x2="65.7061402313" y1="138.701055997" y2="-41.0577532628"/><line fill="none" stroke="#4169e1" stroke-linecap="round" x1="65.7061402313" x2="231.513654742" y1="-41.0577532628" y2="70.7808274313"/><line fill="none" stroke="#00bfff" stroke-linecap="round" x1="231.513654742" x2="97.6875334705" y1="70.7808274313" y2="219.409792527"/><line fill="none" stroke="#87cefa" stroke-linecap="round" x1="97.6875334705" x2="-30.8699884668" y1="219.409792527" y2="66.200903903"/><line fill="none" stroke="#00bfff" stroke-linecap="round" x1="-30.8699884668" x2="138.739630765" y1="66.200903903" y2="-39.7829489436"/><line fill="none" stroke="#4169e1" stroke-linecap="round" x1="138.739630765" x2="220.08695938" y1="-39.7829489436" y2="142.926142585"/><line fill="none" stroke="#0000cd" stroke-linecap="round" x1="220.08695938" x2="27.834620192" y1="142.926142585" y2="198.053613748"/><line fill="none" stroke="#191970" stroke-linecap="round" x1="27.834620192" x2="-2.05346850635e-12" y1="198.053613748" y2="9.37916411203e-13"/><line fill="none" stroke="none" stroke-linecap="round" x1="0.0" x2="0.0" y1="0.0" y2="0.0"/><polygon fill="none" fill-rule="evenodd" points="0.0,0.0 0.0,0.0 0.0,0.0" stroke-linejoin="round"/></svg>