<?xml version="1.0" ?><!DOCTYPE svg  PUBLIC '-//W3C//DTD SVG 1.1//EN'  'http://www.w3.org/Graphics/SVG/1.1/DTD/svg11.dtd'><svg height="312.000" viewBox="-105.000 -295.000 313.000 312.000" width="313.000" xmlns="http://www.w3.org/2000/svg"><line fill="none" stroke="none" stroke-linecap="round" stroke-width="2.0" x1="0.0" x2="0.0" y1="0.0" y2="0.0"/><polygon fill="none" fill-rule="evenodd" points="0.0,0.0 0.0,0.0 0.0,0.0" stroke-linejoin="round"/><line fill="none" stroke="none" stroke-linecap="round" stroke-width="2.0" x1="0.0" x2="0.0" y1="0.0" y2="0.0"/><polyline fill="none" points="0.0,-0.0 150.0,-0.0 196.352549156,-142.658477444 75.0,-230.826265288 -46.3525491562,-142.658477444 -2.84217094304e-14,-0.0" stroke="#000" stroke-linecap="round" stroke-linejoin="round"/><polyline fill="none" points="0.0,-0.0 100.0,-0.0 176.604444312,-64.2787609687 193.969262079,-162.75953627 143.969262079,-249.362076648 50.0,-283.564090981 -43.9692620786,-249.362076648 -93.9692620786,-162.75953627 -76.6044443119,-64.2787609687 0.0,-1.13686837722e-13" stroke="#000" stroke-linecap="round" stroke-linejoin="round"/><line fill="none" stroke="none" stroke-linecap="round" x1="0.0" x2="0.0" y1="0.0" y2="0.0"/><polygon fill="#000" fill-rule="evenodd" points="-2.84217094304e-14,-0.0 -9.0,-5.0 -7.0,-1.55431223448e-15 -9.0,5.0" stroke="#000" stroke-linejoin="round"/><line fill="none" stroke="none" stroke-linecap="round" x1="0.0" x2="0.0" y1="0.0" y2="0.0"/><polygon fill="#000" fill-rule="evenodd" points="0.0,-1.13686837722e-13 -9.0,-5.0 -7.0,-1.16406884132e-13 -9.0,5.0" stroke="#000" stroke-linejoin="round"/></svg>