<?xml version="1.0" ?><!DOCTYPE svg  PUBLIC '-//W3C//DTD SVG 1.1//EN'  'http://www.w3.org/Graphics/SVG/1.1/DTD/svg11.dtd'><svg height="328.000" viewBox="-88.000 -296.000 327.000 328.000" width="327.000" xmlns="http://www.w3.org/2000/svg"><polyline fill="none" points="0.0,-0.0 150.0,-0.0 227.218920226,-128.597194211 156.722408772,-260.99901396 6.92129528965,-268.720827176 -76.8152630144,-144.269275143 -13.2281044079,-8.41393568087 135.976876934,7.00921388973 226.009019017,-112.966672821 169.499834971,-251.915268059 21.2866505576,-274.998854565 -74.8023262471,-159.816787659 -25.5209689605,-18.1434033415 121.307383804,12.5394065774 223.198384638,-97.5433983874 181.275539411,-241.565879438 36.221380692,-279.766547474 -71.2014475552,-175.074924259 -36.7482862354,-29.0852682043 106.147020885,16.5319566448 218.816810516,-82.4908614559 191.924696694,-230.060554192 51.567173838,-282.973367174 -66.0507971485,-189.8819449 -46.7910438765,-41.1235437798 90.6564917965,18.9445420679 212.910742424,-67.9686226627 201.334423105,-217.52125163 67.1613607707,-284.585320578 -59.4049732028,-204.080891479 -55.5427861545,-54.1306213519 75.0,19.7515888412 205.542786155,-54.1306213519 209.404973203,-204.080891479 82.8386392293,-284.585320578 -51.334423105,-217.52125163 -62.910742424,-67.9686226627 59.3435082035,18.9445420679 196.791043877,-41.1235437798 216.050797149,-189.8819449 98.432826162,-282.973367174 -41.924696694,-230.060554192 -68.8168105157,-82.4908614559" stroke="#000" stroke-linecap="round" stroke-linejoin="round"/><polyline fill="none" points="-68.8168105157,-82.4908614559 43.8529791149,16.5319566448 186.748286235,-29.0852682043 221.201447555,-175.074924259 113.778619308,-279.766547474 -31.2755394107,-241.565879438 -73.1983846384,-97.5433983874 28.6926161962,12.5394065774 175.52096896,-18.1434033415 224.802326247,-159.816787659 128.713349442,-274.998854565 -19.4998349713,-251.915268059 -76.0090190165,-112.966672821 14.0231230657,7.00921388973 163.228104408,-8.41393568087 226.815263014,-144.269275143 143.07870471,-268.720827176 -6.72240877238,-260.99901396 -77.2189202265,-128.597194211 -1.84741111298e-13,-2.55795384874e-13 150.0,6.06181771445e-14 227.218920226,-128.597194211 156.722408772,-260.99901396 6.92129528965,-268.720827176 -76.8152630144,-144.269275143 -13.2281044079,-8.41393568087 135.976876934,7.00921388973 226.009019017,-112.966672821 169.499834971,-251.915268059 21.2866505576,-274.998854565 -74.8023262471,-159.816787659 -25.5209689605,-18.1434033415 121.307383804,12.5394065774 223.198384638,-97.5433983874 181.275539411,-241.565879438 36.221380692,-279.766547474 -71.2014475552,-175.074924259 -36.7482862354,-29.0852682043 106.147020885,16.5319566448 218.816810516,-82.4908614559 191.924696694,-230.060554192 51.567173838,-282.973367174 -66.0507971485,-189.8819449" stroke="#000" stroke-linecap="round" stroke-linejoin="round"/><polyline fill="none" points="-66.0507971485,-189.8819449 -46.7910438765,-41.1235437798 90.6564917965,18.9445420679 212.910742424,-67.9686226627 201.334423105,-217.52125163 67.1613607707,-284.585320578 -59.4049732028,-204.080891479 -55.5427861545,-54.1306213519 75.0,19.7515888412 205.542786155,-54.1306213519 209.404973203,-204.080891479 82.8386392293,-284.585320578 -51.334423105,-217.52125163 -62.910742424,-67.9686226627 59.3435082035,18.9445420679 196.791043877,-41.1235437798 216.050797149,-189.8819449 98.432826162,-282.973367174 -41.924696694,-230.060554192 -68.8168105157,-82.4908614559 43.8529791149,16.5319566448 186.748286235,-29.0852682043 221.201447555,-175.074924259 113.778619308,-279.766547474 -31.2755394107,-241.565879438 -73.1983846384,-97.5433983874 28.6926161962,12.5394065774 175.52096896,-18.1434033415 224.802326247,-159.816787659 128.713349442,-274.998854565 -19.4998349713,-251.915268059 -76.0090190165,-112.966672821 14.0231230657,7.00921388973 163.228104408,-8.41393568087 226.815263014,-144.269275143 143.07870471,-268.720827176 -6.72240877238,-260.99901396" stroke="#000" stroke-linecap="round" stroke-linejoin="round"/><line fill="none" stroke="none" stroke-linecap="round" x1="0.0" x2="0.0" y1="0.0" y2="0.0"/><polygon fill="#000" fill-rule="evenodd" points="-6.72240877238,-260.99901396 1.9207759065,-266.59323943 -3.43257157118,-267.177765549 -6.90601207676,-271.29300686" stroke="#000" stroke-linejoin="round"/></svg>