<?xml version="1.0" ?><!DOCTYPE svg  PUBLIC '-//W3C//DTD SVG 1.1//EN'  'http://www.w3.org/Graphics/SVG/1.1/DTD/svg11.dtd'><svg height="266.000" viewBox="-106.000 -249.000 263.000 266.000" width="263.000" xmlns="http://www.w3.org/2000/svg"><line fill="none" stroke="none" stroke-linecap="round" stroke-width="2.0" x1="0.0" x2="0.0" y1="0.0" y2="0.0"/><polygon fill="none" fill-rule="evenodd" points="0.0,0.0 0.0,0.0 0.0,0.0" stroke-linejoin="round"/><line fill="none" stroke="none" stroke-linecap="round" stroke-width="2.0" x1="0.0" x2="0.0" y1="0.0" y2="0.0"/><polyline fill="none" points="0.0,0.0 50.0,0.0 95.6772728821,-20.3368321538 129.1338032,-57.4940734277 144.584652919,-105.046899242 139.358229755,-154.772994011 114.358229755,-198.0742642 73.9073800367,-227.463526815 25.0,-237.859111356 -23.9073800367,-227.463526815 -64.3582297554,-198.0742642 -89.3582297554,-154.772994011 -94.5846529188,-105.046899242 -79.1338032001,-57.4940734277 -45.6772728821,-20.3368321538 -9.23705556488e-14,-6.39488462184e-14" stroke="#000" stroke-linecap="round" stroke-linejoin="round"/><line fill="none" stroke="none" stroke-linecap="round" x1="0.0" x2="0.0" y1="0.0" y2="0.0"/><polygon fill="#000" fill-rule="evenodd" points="-9.23705556488e-14,-6.39488462184e-14 -9.0,-5.0 -7.0,-6.97775170977e-14 -9.0,5.0" stroke="#000" stroke-linejoin="round"/><polyline fill="none" points="0.0,0.0 50.0,0.0 95.6772728821,-20.3368321538 129.1338032,-57.4940734277 144.584652919,-105.046899242 139.358229755,-154.772994011 114.358229755,-198.0742642 73.9073800367,-227.463526815 25.0,-237.859111356 -23.9073800367,-227.463526815 -64.3582297554,-198.0742642 -89.3582297554,-154.772994011 -94.5846529188,-105.046899242 -79.1338032001,-57.4940734277 -45.6772728821,-20.3368321538 -9.23705556488e-14,-6.39488462184e-14" stroke="#000" stroke-linecap="round" stroke-linejoin="round"/><line fill="none" stroke="none" stroke-linecap="round" x1="0.0" x2="0.0" y1="0.0" y2="0.0"/><polygon fill="#000" fill-rule="evenodd" points="-9.23705556488e-14,-6.39488462184e-14 -9.0,-5.0 -7.0,-6.97775170977e-14 -9.0,5.0" stroke="#000" stroke-linejoin="round"/></svg>
